# xmcd
#
# Track frame offsets:
#	150
#	10898
#	24936
#	38069
#	51174
#	63311
#	77466
#	90811
#	104684
#	115247
#	128625
#	138715
#	150658
#	163010
#	173787
#	184788
#	194850
#	208491
#	218134
#	230736
#	243371
#	251688
#	264443
#	275009
#	288221
#	300621
#	311305
#
# Disc length: 4292 seconds
#
# Revision: 0
# Processed by: cddbd v1.5.2PL0 Copyright (c) Steve Scherf et al.
# Submitted via: audiograbber 1.83.01
#
DISCID=7f10c21b
DTITLE=The Original Blue and Lonesome - The Original Blue and Lonesome
DYEAR=2018
DGENRE=Blues
TTITLE0=Little Walter - Just Your Fool
TTITLE1=Otis Rush - I Can't Quit You Baby
TTITLE2=Little Walter - Blue And Lonesome
TTITLE3=Magic Sam - All Of Your Love
TTITLE4=Little Walter - I Gotta Go
TTITLE5=Jimmy Reed - Little Rain
TTITLE6=Eddie Taylor - Ride 'Em On Down
TTITLE7=Little Walter - Hate To See You Go
TTITLE8=Lightnin' Slim - Hoo Doo Blues
TTITLE9=Howlin' Wolf - Just Like I Treat You
TTITLE10=Dale Hawkins - Susie Q
TTITLE11=Chuck Berry - Around And Around
TTITLE12=Arthur Alexander - You Better Move On
TTITLE13=Muddy Waters - Look What You've Done
TTITLE14=Howlin' Wolf - Red Rooster
TTITLE15=Benny Spellman - Fortune Teller
TTITLE16=Slim Harpo - I'm A King Bee
TTITLE17=Gene Allison - You Can Make It If You Try
TTITLE18=Chuck Berry - Carol
TTITLE19=Bob and Earl - Harlem Shuffle
TTITLE20=Larry Williams - She Said Yeah
TTITLE21=Solomon Burke - Everybody Needs Somebody To Love
TTITLE22=Buddy Holly and the Crickets  - Not Fade Away
TTITLE23=Muddy Waters - Mannish Boy
TTITLE24=Jimmy Reed - Honest I Do.
TTITLE25=Bo Diddley - Mona
TTITLE26=Robert Johnson - Love In Vain Blues
EXTD=
EXTT0=
EXTT1=
EXTT2=
EXTT3=
EXTT4=
EXTT5=
EXTT6=
EXTT7=
EXTT8=
EXTT9=
EXTT10=
EXTT11=
EXTT12=
EXTT13=
EXTT14=
EXTT15=
EXTT16=
EXTT17=
EXTT18=
EXTT19=
EXTT20=
EXTT21=
EXTT22=
EXTT23=
EXTT24=
EXTT25=
EXTT26=
PLAYORDER=
